<?xml version="1.0" encoding="UTF-8" standalone="no"?>
<!DOCTYPE svg PUBLIC "-//W3C//DTD SVG 1.1//EN" "http://www.w3.org/Graphics/SVG/1.1/DTD/svg11.dtd">
<svg width="100%" height="100%" viewBox="0 0 1024 1024" version="1.1" xmlns="http://www.w3.org/2000/svg" xmlns:xlink="http://www.w3.org/1999/xlink" xml:space="preserve" xmlns:serif="http://www.serif.com/" style="fill-rule:evenodd;clip-rule:evenodd;stroke-linejoin:round;stroke-miterlimit:2;">
    <g transform="matrix(1.18666,0,0,1.18666,-89.212,30.993)">
        <g transform="matrix(0.332075,0,0,0.332075,-4.26412,-7.21848)">
            <path d="M239.178,1837.94L239.178,656.626C239.178,656.626 241.753,566.488 328.028,567.776C414.303,569.064 1562.32,567.776 1562.32,567.776C1562.32,567.776 1499.38,796.06 1550.47,884.092C1610.14,986.892 1920.3,1243.18 1920.3,1243.18C1920.3,1243.18 1717.42,1420.23 1617.95,1507.93C1551.11,1566.87 1486.61,1760.99 1559.75,1943.53L326.74,1940.95C326.74,1940.95 259.781,1956.41 239.178,1837.94ZM647.505,1671.44C647.505,1645.35 626.324,1624.17 600.235,1624.17L453.474,1624.17C427.385,1624.17 406.204,1645.35 406.204,1671.44L406.204,1740.9C406.204,1766.99 427.385,1788.17 453.474,1788.17L600.235,1788.17C626.324,1788.17 647.505,1766.99 647.505,1740.9L647.505,1671.44ZM1057.5,1667.32C1057.5,1641.23 1036.32,1620.05 1010.23,1620.05L863.472,1620.05C837.383,1620.05 816.202,1641.23 816.202,1667.32L816.202,1736.78C816.202,1762.87 837.383,1784.05 863.472,1784.05L1010.23,1784.05C1036.32,1784.05 1057.5,1762.87 1057.5,1736.78L1057.5,1667.32ZM1061.71,743.617C1061.71,717.528 1040.53,696.347 1014.44,696.347L867.675,696.347C841.586,696.347 820.405,717.528 820.405,743.617L820.405,816.159C820.405,842.249 841.586,863.43 867.675,863.43L1014.44,863.43C1040.53,863.43 1061.71,842.249 1061.71,816.159L1061.71,743.617ZM1475.74,742.298C1475.74,716.209 1454.56,695.028 1428.47,695.028L1281.71,695.028C1255.62,695.028 1234.44,716.209 1234.44,742.298L1234.44,814.841C1234.44,840.93 1255.62,862.111 1281.71,862.111L1428.47,862.111C1454.56,862.111 1475.74,840.93 1475.74,814.841L1475.74,742.298ZM1471.62,1669.38C1471.62,1643.29 1450.44,1622.11 1424.35,1622.11L1277.59,1622.11C1251.5,1622.11 1230.32,1643.29 1230.32,1669.38L1230.32,1738.84C1230.32,1764.93 1251.5,1786.11 1277.59,1786.11L1424.35,1786.11C1450.44,1786.11 1471.62,1764.93 1471.62,1738.84L1471.62,1669.38ZM647.67,742.298C647.67,716.209 626.489,695.028 600.4,695.028L453.639,695.028C427.55,695.028 406.369,716.209 406.369,742.298L406.369,814.841C406.369,840.93 427.55,862.111 453.639,862.111L600.4,862.111C626.489,862.111 647.67,840.93 647.67,814.841L647.67,742.298ZM1326.74,963.642C1324.28,1056.55 1330.26,1414.82 1330.7,1517.45C1330.75,1530.38 1337.29,1549.1 1368.94,1524.04C1400.58,1498.99 1610.68,1319.88 1656.39,1266.92C1669.91,1251.25 1688.14,1246.61 1643.2,1206.26C1587.73,1156.46 1430.39,1008.48 1367.62,959.687C1356.84,951.307 1327.56,932.894 1326.74,963.642ZM1193.57,995.862C1193.57,972.257 1174.4,953.094 1150.8,953.094L449.137,953.094C425.533,953.094 406.369,972.257 406.369,995.862L406.369,1487.87C406.369,1511.47 425.533,1530.63 449.137,1530.63L1150.8,1530.63C1174.4,1530.63 1193.57,1511.47 1193.57,1487.87L1193.57,995.862Z" style="fill:url(#_Linear1);"/>
        </g>
        <g transform="matrix(0.332075,0,0,0.332075,-4.26412,-7.21848)">
            <path d="M2724.41,979.194C2598.24,1106.91 2400.18,1228.68 2400.18,1228.68C2400.18,1228.68 2413.68,1246.08 2587.09,1388.05C2690.75,1472.93 2775.91,1570.62 2808.25,1624.22C2873.54,1732.39 2815.45,1834.77 2750.16,1885.33C2679.47,1940.08 2480.74,1946.7 2351.47,1785.09C2212.07,1610.81 2348.82,1451.32 2437.21,1428.26C2437.21,1428.26 2368.78,1432.05 2287.24,1426.21C2259.1,1424.19 2198.24,1378.41 2198.24,1378.41L1670.8,1856.39C1590.04,1744.32 1607.26,1642.86 1659.26,1592.68C1741.66,1513.17 2048.25,1244.9 2048.25,1244.9C2048.25,1244.9 1776.01,1007.78 1650.01,880.04C1566.23,795.097 1670.26,628.897 1670.26,628.897C1670.26,628.897 2200.58,1107.32 2207.18,1097.43C2213.77,1087.54 2256.71,1072.32 2281.35,1059.52C2331.28,1033.59 2433.33,1031.59 2433.33,1031.59C2278.17,982.056 2267.33,813.034 2391.4,687.161C2473.96,603.403 2685.35,546.347 2785.91,650.273C2897.27,765.363 2793.32,909.448 2724.41,979.194ZM2446.01,1540.58C2397.48,1586.68 2409.83,1662.66 2476.61,1732.95C2543.38,1803.25 2636.99,1822.88 2685.52,1776.79C2734.05,1730.68 2719.23,1636.19 2652.45,1565.9C2585.68,1495.61 2494.54,1494.48 2446.01,1540.58ZM2692.81,714.828C2647.91,665.195 2553.83,677.029 2482.87,741.236C2411.91,805.444 2395.57,878.589 2440.47,928.222C2485.38,977.854 2566.92,984.335 2637.89,920.127C2708.85,855.92 2737.72,764.46 2692.81,714.828Z" style="fill:url(#_Linear2);"/>
        </g>
        <g transform="matrix(0.332075,0,0,0.332075,-4.26412,-7.21848)">
            <path d="M1696.87,743.041C1696.87,743.041 1684.63,798.999 1703.48,824.398C1722.32,849.798 2168.66,1261.28 2277.23,1348.81C2296.49,1364.34 2357.36,1351.27 2357.36,1351.27L2241.86,1241.09L2363.21,1133.29C2363.21,1133.29 2310.57,1119.65 2286.57,1130.21C2260.49,1141.68 2198.36,1202.11 2198.36,1202.11L1696.87,743.041Z" style="fill:url(#_Linear3);"/>
        </g>
        <g transform="matrix(0.332075,0,0,0.332075,-4.26412,-7.21848)">
            <path d="M2111.07,1285.43L2150.96,1317.35L1691.96,1735.8C1691.96,1735.8 1676.19,1688.79 1691.92,1668.47C1749.92,1593.54 2111.07,1285.43 2111.07,1285.43Z" style="fill:url(#_Linear4);"/>
        </g>
    </g>
    <defs>
        <linearGradient id="_Linear1" x1="0" y1="0" x2="1" y2="0" gradientUnits="userSpaceOnUse" gradientTransform="matrix(1064.06,839.117,-839.117,1064.06,428.458,1013.83)"><stop offset="0" style="stop-color:rgb(147,51,234);stop-opacity:1"/><stop offset="1" style="stop-color:rgb(93,0,177);stop-opacity:1"/></linearGradient>
        <linearGradient id="_Linear2" x1="0" y1="0" x2="1" y2="0" gradientUnits="userSpaceOnUse" gradientTransform="matrix(1413.09,10.1992,-10.1992,1413.09,1729.37,1241.88)"><stop offset="0" style="stop-color:rgb(147,51,234);stop-opacity:1"/><stop offset="0.46" style="stop-color:rgb(105,11,190);stop-opacity:1"/><stop offset="1" style="stop-color:rgb(93,0,177);stop-opacity:1"/></linearGradient>
        <linearGradient id="_Linear3" x1="0" y1="0" x2="1" y2="0" gradientUnits="userSpaceOnUse" gradientTransform="matrix(1236.64,293.225,-293.225,1236.64,1337.62,952.886)"><stop offset="0" style="stop-color:rgb(168,111,255);stop-opacity:1"/><stop offset="0.55" style="stop-color:rgb(152,88,239);stop-opacity:1"/><stop offset="1" style="stop-color:rgb(93,0,177);stop-opacity:1"/></linearGradient>
        <linearGradient id="_Linear4" x1="0" y1="0" x2="1" y2="0" gradientUnits="userSpaceOnUse" gradientTransform="matrix(618.067,-557.382,557.382,618.067,1701.72,1696.81)"><stop offset="0" style="stop-color:rgb(168,111,255);stop-opacity:1"/><stop offset="0.51" style="stop-color:rgb(150,84,236);stop-opacity:1"/><stop offset="1" style="stop-color:rgb(93,0,177);stop-opacity:1"/></linearGradient>
    </defs>
</svg>
